<?xml version="1.0" encoding="utf-8"?>
<!-- Generator: Adobe Illustrator 19.2.1, SVG Export Plug-In . SVG Version: 6.00 Build 0)  -->
<svg version="1.1" id="Layer_2" xmlns="http://www.w3.org/2000/svg" xmlns:xlink="http://www.w3.org/1999/xlink" x="0px" y="0px"
	 viewBox="0 0 612 792" style="enable-background:new 0 0 612 792;" xml:space="preserve">
<g>
	<path d="M200.6,346.6c14.1,0,25.5-11.4,25.5-25.5v-99.4c0-44.5,36.2-80.6,80.6-80.6s80.6,36.2,80.6,80.6v99.4
		c0,14.1,11.4,25.5,25.5,25.5c14.1,0,25.5-11.4,25.5-25.5v-99.4c0-72.6-59-131.6-131.6-131.6c-72.6,0-131.6,59.1-131.6,131.6v99.4
		C175.1,335.2,186.5,346.6,200.6,346.6z"/>
	<path d="M599.2,289.3H463.9v31.8c0,28.1-22.9,51-51,51c-28.1,0-51-22.9-51-51v-31.8H251.6v31.8c0,28.1-22.9,51-51,51
		s-51-22.9-51-51v-31.8H12.7c-7,0-11.4,5.5-9.7,12.4L92.3,665c5.4,20.4,26.9,37,48,37h331.5c21.1,0,42.6-16.6,48-37L609,301.7
		C610.6,294.8,606.3,289.3,599.2,289.3z"/>
</g>
</svg>
