<?xml version="1.0" encoding="utf-8"?>
<!-- Generator: Adobe Illustrator 18.1.1, SVG Export Plug-In . SVG Version: 6.00 Build 0)  -->
<svg version="1.1" id="Layer_1" xmlns="http://www.w3.org/2000/svg" xmlns:xlink="http://www.w3.org/1999/xlink" x="0px" y="0px"
	 viewBox="0 0 612 792" enable-background="new 0 0 612 792" xml:space="preserve">
<g id="Layer_14">
	<path d="M80.3,90h455.2c42.1,0,76.5,30.6,76.5,80.3v455.2c0,45.9-34.4,80.3-80.3,80.3H80.3C34.4,702,0,671.4,0,621.7V170.3
		C0,120.6,34.4,90,80.3,90L80.3,90z M447.5,158.8c-15.3,0-26.8,11.5-26.8,26.8v65c0,15.3,11.5,26.8,26.8,26.8h68.9
		c15.3,0,26.8-11.5,26.8-26.8v-65c0-15.3-11.5-26.8-26.8-26.8H447.5L447.5,158.8z M543.1,350.1h-53.5c3.8,15.3,7.6,34.4,7.6,49.7
		c0,103.3-84.1,183.6-191.3,183.6c-103.3,0-191.3-84.2-191.3-183.6c0-19.1,3.8-34.4,7.7-53.5H68.8v260.1c0,11.5,11.5,23,23,23h424.6
		c11.5,0,23-11.5,23-23L543.1,350.1L543.1,350.1z M306,277.4c-68.9,0-122.4,49.7-122.4,118.6c0,65,53.6,118.6,122.4,118.6
		S428.4,461,428.4,396C428.4,327.1,374.9,277.4,306,277.4z"/>
</g>
</svg>
