<?xml version="1.0" encoding="utf-8"?>
<!-- Generator: Adobe Illustrator 18.1.1, SVG Export Plug-In . SVG Version: 6.00 Build 0)  -->
<svg version="1.1" id="Layer_1" xmlns="http://www.w3.org/2000/svg" xmlns:xlink="http://www.w3.org/1999/xlink" x="0px" y="0px"
	 viewBox="0 0 612 792" enable-background="new 0 0 612 792" xml:space="preserve">
<g id="Layer_30">
	<path d="M550.8,90H61.2C26.8,90,0,116.8,0,151.2v489.6C0,675.2,26.8,702,61.2,702h489.6c34.4,0,61.2-26.8,61.2-61.2V151.2
		C612,116.8,585.2,90,550.8,90z M482,311.9c-3.8,141.5-91.8,237.1-225.7,244.8c-53.6,3.8-95.6-15.3-130.1-38.3
		c38.3,7.7,91.8-7.6,118.6-34.4c-38.3-3.8-65-23-76.5-57.4c11.5,3.8,22.9,0,34.4,0c-42.1-7.7-65-30.6-68.9-80.3
		c11.5,7.7,22.9,11.5,34.4,11.5c-26.8-15.3-45.9-76.5-23-110.9c38.3,42.1,88,80.3,168.3,84.2c-23-84.1,95.6-130.1,141.5-72.7
		c23-3.8,38.3-11.5,53.5-19.1c-7.6,22.9-19.1,34.4-34.4,45.9c11.5-3.8,26.8-3.8,38.3-11.5C512.5,288.9,497.3,300.4,482,311.9z"/>
</g>
</svg>
